<?xml version="1.0" standalone="no"?>
<!DOCTYPE svg PUBLIC "-//W3C//DTD SVG 20010904//EN"
 "http://www.w3.org/TR/2001/REC-SVG-20010904/DTD/svg10.dtd">
<svg version="1.0" xmlns="http://www.w3.org/2000/svg"
 width="1000.000000pt" height="623.000000pt" viewBox="0 0 1000.000000 623.000000"
 preserveAspectRatio="xMidYMid meet">

<g transform="translate(0.000000,623.000000) scale(0.100000,-0.100000)"
fill="#000000" stroke="none">
<path d="M3795 6186 c-114 -36 -228 -132 -326 -273 -104 -150 -152 -295 -152
-453 2 -234 133 -438 375 -581 l89 -53 -80 -26 c-91 -29 -110 -44 -191 -151
-62 -80 -66 -83 -225 -143 -39 -14 -87 -40 -107 -56 -33 -27 -102 -123 -167
-232 l-23 -38 79 0 78 0 27 48 c30 52 95 132 108 132 5 0 -9 -39 -30 -86 -22
-47 -40 -88 -40 -90 0 -2 31 -4 70 -4 l69 0 41 86 c86 180 290 341 573 454
l58 23 107 -18 c59 -10 175 -21 257 -24 l150 -6 -125 -85 c-150 -102 -335
-249 -445 -353 l-80 -76 94 -1 94 0 86 73 c224 191 647 472 678 451 6 -5 31
-22 54 -39 36 -26 51 -30 104 -30 50 0 69 5 103 28 50 33 35 38 237 -86 190
-116 478 -325 525 -382 10 -12 34 -15 114 -15 l101 1 -60 55 c-119 109 -315
261 -458 354 -80 52 -146 97 -146 100 -1 3 43 2 97 -2 104 -8 223 -3 365 13
101 12 118 8 302 -84 200 -99 345 -225 418 -364 l38 -73 70 0 c38 0 69 3 69 6
0 3 -20 45 -44 94 l-43 89 38 -30 c43 -34 92 -93 110 -132 12 -26 16 -27 86
-27 l73 0 -36 72 c-21 42 -62 99 -98 136 -80 84 -345 306 -453 379 -72 49 -82
59 -67 68 9 5 56 36 104 67 314 207 409 552 244 881 -102 203 -246 350 -390
397 -91 31 -221 25 -312 -13 -241 -100 -522 -416 -757 -851 l-47 -87 -48 45
c-74 69 -148 81 -228 35 -18 -10 -35 -19 -37 -19 -2 0 -27 42 -56 93 -247 438
-528 731 -768 801 -65 19 -190 20 -246 2z m233 -136 c117 -41 265 -166 404
-340 37 -46 66 -85 65 -86 -1 -2 -35 14 -75 34 -141 69 -265 44 -376 -79 -137
-152 -176 -331 -105 -485 33 -71 139 -173 222 -214 37 -18 66 -34 65 -36 -2
-1 -39 4 -83 12 -313 54 -549 202 -651 409 -33 67 -38 85 -42 173 -5 119 12
193 71 307 78 149 196 274 294 310 56 20 144 18 211 -5z m2269 -14 c63 -35
157 -130 217 -220 140 -211 154 -443 38 -621 -89 -136 -234 -239 -431 -305
-89 -30 -295 -70 -354 -70 -28 1 -21 6 48 39 101 47 200 137 238 214 81 165
36 359 -117 513 -88 88 -142 110 -248 101 -84 -7 -85 -8 43 127 179 190 299
258 439 253 60 -3 86 -9 127 -31z m-1917 -503 c95 -55 218 -200 321 -378 46
-80 49 -91 49 -155 l0 -68 -87 -7 c-278 -24 -533 73 -604 228 -49 108 -6 249
108 360 64 63 128 69 213 20z m1416 2 c48 -28 121 -123 147 -193 23 -57 21
-146 -3 -199 -40 -89 -155 -170 -296 -209 -69 -18 -266 -30 -348 -20 l-56 7 0
65 c0 51 6 76 29 122 90 178 261 379 362 426 68 33 111 33 165 1z m-753 -353
c81 -89 82 -303 2 -388 -40 -42 -58 -43 -100 -1 -41 41 -59 101 -59 197 0 118
48 210 109 210 18 0 39 -8 48 -18z"/>
<path d="M2590 2028 c1 -44 38 -104 123 -202 l86 -98 -57 -57 c-65 -65 -105
-132 -127 -216 -81 -312 188 -610 508 -565 38 6 78 15 89 21 11 6 27 8 36 4 9
-4 53 -13 96 -21 43 -7 88 -20 100 -29 12 -8 59 -44 106 -80 66 -51 101 -70
155 -86 86 -25 107 -33 265 -102 l125 -55 7 -78 c10 -121 42 -202 111 -280 96
-109 221 -160 375 -152 79 4 100 9 164 40 40 20 94 56 118 79 40 37 51 42 95
43 65 2 102 21 202 106 59 49 93 71 120 75 21 3 99 18 175 32 l136 26 66 -27
c119 -47 178 -35 301 59 48 36 85 53 190 86 230 73 259 94 309 224 15 39 38
81 51 95 30 32 49 72 69 142 10 35 26 64 41 76 l25 20 77 -39 c232 -118 510
-25 620 206 89 188 47 397 -107 537 -65 59 -70 66 -70 104 0 23 7 61 15 84 8
23 15 44 15 46 0 2 -31 4 -70 4 l-69 0 -10 -37 c-6 -21 -11 -50 -11 -64 l0
-26 -78 5 c-266 15 -482 -188 -482 -453 0 -79 25 -177 61 -234 l20 -34 -36
-37 c-23 -23 -46 -64 -64 -112 -15 -41 -41 -91 -56 -110 -15 -20 -42 -71 -59
-114 -29 -72 -35 -81 -76 -101 -25 -12 -92 -36 -149 -53 -123 -37 -164 -56
-252 -121 -37 -27 -75 -49 -87 -49 -11 0 -50 11 -86 25 -76 29 -134 31 -215
10 -31 -8 -101 -21 -156 -30 -122 -20 -141 -29 -239 -110 -43 -36 -82 -65 -86
-65 -5 0 -4 17 2 38 6 20 11 71 11 112 -1 177 -97 326 -261 408 -66 32 -85 37
-167 40 -181 8 -336 -72 -417 -215 -17 -29 -31 -53 -33 -53 -6 0 -147 61 -217
94 -42 20 -81 36 -86 36 -6 0 -39 9 -76 20 -50 16 -89 39 -167 100 -70 54
-116 82 -148 91 l-47 12 43 64 c123 184 102 411 -53 573 -64 67 -144 112 -232
131 -54 11 -173 8 -219 -6 -16 -5 -23 -2 -28 14 -3 11 -44 62 -91 113 -46 50
-87 102 -90 115 -6 21 -11 23 -70 23 -60 0 -64 -1 -64 -22z m4488 -262 c113
-57 174 -151 180 -276 5 -103 -22 -176 -92 -246 -155 -154 -409 -117 -514 75
-100 183 -10 400 193 468 63 21 170 11 233 -21z m-3873 -135 c95 -47 154 -125
173 -231 27 -147 -51 -291 -191 -355 -51 -24 -68 -27 -140 -23 -133 5 -231 70
-286 188 -37 81 -36 193 3 270 87 173 270 235 441 151z m1453 -836 c69 -21
147 -86 186 -155 29 -51 31 -62 31 -155 0 -92 -2 -104 -30 -154 -131 -237
-474 -223 -587 24 -32 70 -32 190 0 260 38 83 125 159 212 186 43 13 134 10
188 -6z"/>
<path d="M3875 1989 c26 -33 65 -81 86 -106 22 -25 65 -80 96 -122 74 -101
120 -148 168 -173 36 -19 50 -20 175 -14 l135 7 76 -79 c41 -44 90 -87 108
-97 45 -23 109 -21 166 4 26 12 49 21 51 21 2 0 1 -26 -2 -57 -7 -70 14 -171
52 -245 61 -120 201 -218 341 -238 373 -52 648 349 463 677 l-29 51 70 57
c114 93 245 261 273 353 7 21 5 22 -63 22 -62 0 -70 -2 -76 -21 -15 -47 -156
-204 -245 -274 l-56 -43 -39 24 c-132 81 -317 83 -457 7 -47 -26 -168 -143
-168 -163 0 -6 -16 -10 -35 -10 -20 0 -63 -12 -97 -26 -36 -15 -70 -23 -84
-20 -12 3 -48 35 -80 72 -32 36 -77 77 -101 91 -44 25 -46 26 -181 19 l-137
-7 -41 43 c-23 24 -61 70 -85 103 -24 33 -71 93 -103 133 l-60 72 -84 0 -83 0
46 -61z m1647 -349 c73 -34 124 -85 160 -158 29 -58 33 -77 33 -142 -1 -92
-31 -164 -94 -227 -63 -63 -121 -87 -218 -91 -71 -4 -88 -1 -142 24 -245 109
-263 452 -30 579 29 15 67 32 83 36 51 13 159 2 208 -21z"/>
</g>
</svg>
