<svg xmlns="http://www.w3.org/2000/svg" version="1.1" xmlns:xlink="http://www.w3.org/1999/xlink" xmlns:svgjs="http://svgjs.dev/svgjs" width="1000" height="234" viewBox="0 0 1000 234"><g transform="matrix(1,0,0,1,-0.6060606060606233,-0.16273573013333476)"><svg viewBox="0 0 396 93" data-background-color="#ffffff" preserveAspectRatio="xMidYMid meet" height="234" width="1000" xmlns="http://www.w3.org/2000/svg" xmlns:xlink="http://www.w3.org/1999/xlink"><g id="tight-bounds" transform="matrix(1,0,0,1,0.2400000000000091,0.06467702095042682)"><svg viewBox="0 0 395.52 92.87064595809913" height="92.87064595809913" width="395.52"><g><svg viewBox="0 0 395.52 92.87064595809913" height="92.87064595809913" width="395.52"><g transform="matrix(1,0,0,1,0,35.944546439640064)"><svg viewBox="0 0 395.52 56.92609951845907" height="56.92609951845907" width="395.52"><g><svg viewBox="0 0 395.52 56.92609951845907" height="56.92609951845907" width="395.52"><g><svg viewBox="0 0 395.52 56.92609951845907" height="56.92609951845907" width="395.52"><g transform="matrix(1,0,0,1,0,0)"><svg width="395.52" viewBox="-0.85 -36 278.32000000000005 40.35" height="56.92609951845907" data-palette-color="#e6b17e"><path d="M0.85 4.35L0.85 4.35Q-0.25 3.7-0.55 2.98-0.85 2.25-0.85 1.75L-0.85 1.75Q-0.85 0.35 0.18-2.05 1.2-4.45 2.93-7.53 4.65-10.6 6.75-13.9L6.75-13.9Q4.9-14.05 3.6-14.1 2.3-14.15 1.35-14.15L1.35-14.15-0.4-14.15Q0.15-15.6 1.53-16.18 2.9-16.75 4.8-16.75L4.8-16.75Q5.65-16.75 6.55-16.65 7.45-16.55 8.4-16.4L8.4-16.4Q10.95-20.25 13.63-23.88 16.3-27.5 18.63-30.33 20.95-33.15 22.5-34.6L22.5-34.6Q23.95-36 24.9-36L24.9-36Q25.45-36 26.13-35.58 26.8-35.15 27.55-34.4L27.55-34.4Q27.05-34 26.28-32.27 25.5-30.55 24.63-27.95 23.75-25.35 22.9-22.25 22.05-19.15 21.33-15.93 20.6-12.7 20.18-9.8 19.75-6.9 19.75-4.7L19.75-4.7Q19.75-2.8 20.18-1.75 20.6-0.7 21.6-0.7L21.6-0.7Q22.9-0.7 24.55-2.5 26.2-4.3 28.15-8.1L28.15-8.1 28.65-7.6Q27.15-3.6 24.83-1.05 22.5 1.5 20 1.5L20 1.5Q17.95 1.5 17.03-0.33 16.1-2.15 16.1-5.2L16.1-5.2Q16.1-6.8 16.32-8.7 16.55-10.6 16.95-12.65L16.95-12.65Q14.75-13 12.93-13.23 11.1-13.45 9.55-13.65L9.55-13.65Q7.2-9.3 4.98-4.7 2.75-0.1 0.85 4.35ZM17.3-14.4L17.3-14.4Q18.05-17.7 19.05-21.08 20.05-24.45 21.18-27.5 22.3-30.55 23.3-32.85L23.3-32.85Q21.75-31.9 19.73-29.48 17.7-27.05 15.45-23.58 13.2-20.1 10.85-15.95L10.85-15.95Q12.55-15.6 14.23-15.18 15.9-14.75 17.3-14.4ZM30.1 1.5L30.1 1.5Q29.25 1.5 28.37 1.07 27.5 0.65 26.92-0.3 26.35-1.25 26.35-2.7L26.35-2.7Q26.35-4.35 27.15-6.4 27.95-8.45 29.3-10.48 30.65-12.5 32.4-14.23 34.15-15.95 36.05-16.98 37.95-18 39.8-18L39.8-18Q40.85-18 41.42-17.63 42-17.25 42-16.45L42-16.45Q42-16.25 41.97-16.1 41.95-15.95 41.9-15.75L41.9-15.75Q41.65-16.15 41.17-16.32 40.7-16.5 40-16.5L40-16.5Q38.4-16.5 36.87-15.53 35.35-14.55 34.07-12.98 32.8-11.4 31.85-9.6 30.9-7.8 30.37-6.13 29.85-4.45 29.85-3.3L29.85-3.3Q29.85-2.2 30.35-1.55 30.85-0.9 31.65-0.9L31.65-0.9Q33-0.9 34.92-2.6 36.85-4.3 38.85-7.4 40.85-10.5 42.45-14.65L42.45-14.65Q43.55-17.55 44.72-20.55 45.9-23.55 47.1-26.33 48.3-29.1 49.42-31.28 50.55-33.45 51.57-34.73 52.6-36 53.4-36L53.4-36Q53.8-36 54.1-35.68 54.4-35.35 54.4-34.85L54.4-34.85Q54.4-34.05 53.57-32.13 52.75-30.2 51.42-27.53 50.1-24.85 48.65-21.7 47.2-18.55 45.87-15.3 44.55-12.05 43.72-9.03 42.9-6 42.9-3.5L42.9-3.5Q42.9-2.1 43.05-1.4 43.2-0.7 44.05-0.7L44.05-0.7Q45.1-0.7 46.5-1.6 47.9-2.5 49.3-4.15 50.7-5.8 51.75-8.1L51.75-8.1 52.35-7.65Q51.4-5.1 49.75-3.08 48.1-1.05 46.22 0.13 44.35 1.3 42.65 1.3L42.65 1.3Q40.8 1.3 40.07 0.08 39.35-1.15 39.35-2.45L39.35-2.45Q39.35-3.3 39.6-4.7 39.85-6.1 40.3-7.8L40.3-7.8Q38.7-5.15 36.9-3.03 35.1-0.9 33.37 0.3 31.65 1.5 30.1 1.5ZM53.2 2.35L53.2 2.35Q51.65 2.35 50.57 1.33 49.5 0.3 49.5-1.8L49.5-1.8Q49.5-3.6 50.3-5.68 51.09-7.75 52.5-9.78 53.9-11.8 55.67-13.48 57.45-15.15 59.42-16.15 61.4-17.15 63.34-17.15L63.34-17.15Q65.3-17.15 66.59-16.13 67.9-15.1 67.9-13.4L67.9-13.4Q67.9-12.15 67.22-11.7 66.55-11.25 65.45-11.25L65.45-11.25Q65.55-11.65 65.62-12.13 65.7-12.6 65.7-13L65.7-13Q65.7-14.15 65.15-14.98 64.59-15.8 63.25-15.8L63.25-15.8Q61.84-15.8 60.4-14.83 58.95-13.85 57.59-12.23 56.25-10.6 55.2-8.7 54.15-6.8 53.55-4.95 52.95-3.1 52.95-1.65L52.95-1.65Q52.95 0.3 54.3 0.3L54.3 0.3Q55.45 0.3 56.8-0.78 58.15-1.85 59.57-3.53 61-5.2 62.3-7 63.59-8.8 64.59-10.3L64.59-10.3Q64.8-10.6 64.84-10.6L64.84-10.6Q65.15-10.55 65.62-10.4 66.09-10.25 66.45-10 66.8-9.75 66.8-9.35L66.8-9.35Q66.8-8.9 66.34-8.13 65.9-7.35 65.34-6.35 64.8-5.35 64.34-4.33 63.9-3.3 63.9-2.4L63.9-2.4Q63.9-1.65 64.3-0.93 64.7-0.2 65.59-0.2L65.59-0.2Q66.95-0.2 69.15-2.18 71.34-4.15 73.59-8.1L73.59-8.1 74.09-7.6Q73.05-4.9 71.4-2.85 69.75-0.8 67.87 0.35 66 1.5 64.2 1.5L64.2 1.5Q62.34 1.5 61.47 0.4 60.59-0.7 60.59-2L60.59-2Q60.59-2.3 60.65-2.68 60.7-3.05 60.75-3.45L60.75-3.45Q58.59-0.55 56.82 0.9 55.05 2.35 53.2 2.35ZM93.74 4.35L93.74 4.35Q92.19 4.35 90.79 3.93 89.39 3.5 88.39 2.1L88.39 2.1Q88.89-0.3 89.62-3.08 90.34-5.85 91.19-8.78 92.04-11.7 92.92-14.53 93.79-17.35 94.59-19.8 95.39-22.25 96.04-24.1 96.69-25.95 97.04-26.9L97.04-26.9Q97.19-27.3 97.54-28.08 97.89-28.85 98.39-29.65 98.89-30.45 99.54-31.03 100.19-31.6 100.94-31.6L100.94-31.6Q101.64-31.6 102.34-31.1L102.34-31.1Q100.79-27.5 99.22-23.15 97.64-18.8 96.19-14.18 94.74-9.55 93.54-5.15 92.34-0.75 91.54 2.85L91.54 2.85Q92.24 2.95 92.72 3 93.19 3.05 93.69 3.05L93.69 3.05Q96.89 3.05 99.87 1.58 102.84 0.1 105.42-2.48 107.99-5.05 109.94-8.38 111.89-11.7 112.97-15.43 114.04-19.15 114.04-22.85L114.04-22.85Q114.04-26.9 112.74-29.53 111.44-32.15 109.14-33.4 106.84-34.65 103.79-34.65L103.79-34.65Q100.54-34.65 97.94-33.35 95.34-32.05 93.84-29.85 92.34-27.65 92.34-24.9L92.34-24.9Q92.34-24.3 92.42-23.85 92.49-23.4 92.59-23.05L92.59-23.05Q90.94-23.05 90.27-23.88 89.59-24.7 89.59-25.85L89.59-25.85Q89.59-27.6 90.81-29.38 92.04-31.15 94.22-32.65 96.39-34.15 99.24-35.08 102.09-36 105.29-36L105.29-36Q109.79-36 112.52-34.18 115.24-32.35 116.49-29.25 117.74-26.15 117.74-22.3L117.74-22.3Q117.74-17.95 116.39-13.98 115.04-10 112.67-6.68 110.29-3.35 107.24-0.88 104.19 1.6 100.72 2.98 97.24 4.35 93.74 4.35ZM123.29 2.2L123.29 2.2Q120.24 2.2 118.71 0.53 117.19-1.15 117.19-3.6L117.19-3.6Q117.19-5.85 118.31-8.35 119.44-10.85 121.31-13.05 123.19-15.25 125.44-16.63 127.69-18 129.89-18L129.89-18Q131.04-18 132.01-17.4 132.99-16.8 132.99-14.95L132.99-14.95Q132.99-13.05 131.86-11.38 130.74-9.7 128.91-8.4 127.09-7.1 124.91-6.28 122.74-5.45 120.59-5.25L120.59-5.25Q120.49-4.75 120.44-4.3 120.39-3.85 120.39-3.45L120.39-3.45Q120.39-2.7 120.56-1.95 120.74-1.2 121.19-0.58 121.64 0.05 122.41 0.4 123.19 0.75 124.34 0.75L124.34 0.75Q126.49 0.75 128.59-0.48 130.69-1.7 132.49-3.7 134.29-5.7 135.54-8.1L135.54-8.1 136.14-7.65Q134.79-4.65 132.71-2.45 130.64-0.25 128.21 0.98 125.79 2.2 123.29 2.2ZM120.84-6.2L120.84-6.2Q122.19-6.65 123.89-7.53 125.59-8.4 127.16-9.6 128.74-10.8 129.76-12.25 130.79-13.7 130.79-15.3L130.79-15.3Q130.79-15.85 130.59-16.15 130.39-16.45 129.74-16.45L129.74-16.45Q128.54-16.45 127.19-15.53 125.84-14.6 124.59-13.1 123.34-11.6 122.34-9.8 121.34-8 120.84-6.2ZM139.89 2.8L139.89 2.8Q137.49 2.8 135.89 1.2 134.29-0.4 134.29-3.6L134.29-3.6Q134.29-6.1 135.26-8.47 136.24-10.85 137.84-12.75 139.44-14.65 141.39-15.78 143.34-16.9 145.24-16.9L145.24-16.9Q147.29-16.9 148.04-15.7 148.79-14.5 148.79-13.2L148.79-13.2Q148.79-11.75 148.11-10.65 147.44-9.55 146.29-9.55L146.29-9.55Q145.44-9.55 144.84-10.3L144.84-10.3Q145.59-10.7 146.14-11.93 146.69-13.15 146.69-14.25L146.69-14.25Q146.69-14.85 146.46-15.18 146.24-15.5 145.59-15.5L145.59-15.5Q144.24-15.5 142.81-14.3 141.39-13.1 140.16-11.2 138.94-9.3 138.16-7.2 137.39-5.1 137.39-3.25L137.39-3.25Q137.39-1.7 138.14-0.4 138.89 0.9 141.04 0.9L141.04 0.9Q143.04 0.9 145.06-0.2 147.09-1.3 148.84-3.35 150.59-5.4 151.64-8.15L151.64-8.15 152.29-7.65Q151.14-4.65 149.14-2.27 147.14 0.1 144.74 1.45 142.34 2.8 139.89 2.8ZM154.13 1.6L154.13 1.6Q151.98 1.6 151.08 0.28 150.18-1.05 150.18-2.95L150.18-2.95Q150.18-4.5 150.68-6.15 151.18-7.8 152.01-9.25 152.83-10.7 153.86-11.6 154.88-12.5 155.93-12.5L155.93-12.5Q156.18-12.5 156.46-12.43 156.73-12.35 156.98-12.25L156.98-12.25Q156.53-11.85 155.91-10.78 155.28-9.7 154.73-8.33 154.18-6.95 153.81-5.6 153.43-4.25 153.43-3.3L153.43-3.3Q153.43-1.8 153.93-1.13 154.43-0.45 155.23-0.45L155.23-0.45Q156.28-0.45 157.73-1.58 159.18-2.7 160.58-4.45L160.58-4.45Q159.18-5.6 158.41-7.48 157.63-9.35 157.63-11.3L157.63-11.3Q157.63-12.95 158.21-14.4 158.78-15.85 159.88-16.73 160.98-17.6 162.53-17.6L162.53-17.6Q164.58-17.6 165.28-16.5 165.98-15.4 165.98-13.75L165.98-13.75Q165.98-11.8 165.03-9.43 164.08-7.05 162.63-4.85L162.63-4.85Q163.53-4.35 164.53-4.35L164.53-4.35Q165.33-4.35 166.33-4.67 167.33-5 168.31-5.8 169.28-6.6 169.88-7.95L169.88-7.95 170.48-7.45Q169.48-5.1 167.66-4.13 165.83-3.15 164.18-3.15L164.18-3.15Q163.53-3.15 162.93-3.28 162.33-3.4 161.78-3.65L161.78-3.65Q160.08-1.4 158.06 0.1 156.03 1.6 154.13 1.6ZM161.48-5.75L161.48-5.75Q162.73-7.6 163.56-9.63 164.38-11.65 164.38-13.45L164.38-13.45Q164.38-14.9 163.96-15.58 163.53-16.25 162.88-16.25L162.88-16.25Q161.88-16.25 160.83-14.8 159.78-13.35 159.78-11.15L159.78-11.15Q159.78-9.7 160.21-8.22 160.63-6.75 161.48-5.75ZM177.58 1.3L177.58 1.3Q175.88 1.3 174.91 0.4 173.93-0.5 173.93-1.95L173.93-1.95Q173.93-3.45 174.63-5.1 175.33-6.75 176.01-8.38 176.68-10 176.68-11.3L176.68-11.3Q176.68-12.9 175.76-13.68 174.83-14.45 173.88-15.1L173.88-15.1Q172.73-12.15 171.48-9.5 170.23-6.85 169.43-5.5L169.43-5.5 168.98-6.35Q169.68-7.65 170.81-10.15 171.93-12.65 173.03-15.85L173.03-15.85Q172.53-16.35 172.53-17.05L172.53-17.05Q172.53-18.55 173.38-19.5 174.23-20.45 174.63-20.45L174.63-20.45Q175.18-20.45 175.26-19.98 175.33-19.5 175.33-19.25L175.33-19.25Q175.33-19 175.06-18.28 174.78-17.55 174.78-17.4L174.78-17.4Q174.78-16.7 175.56-16.13 176.33-15.55 177.33-14.83 178.33-14.1 179.11-13.08 179.88-12.05 179.88-10.45L179.88-10.45Q179.88-8.95 179.26-7.4 178.63-5.85 178.01-4.45 177.38-3.05 177.38-2L177.38-2Q177.38-1.1 177.83-0.8 178.28-0.5 178.88-0.5L178.88-0.5Q180.08-0.5 181.36-1.25 182.63-2 183.83-3.15 185.03-4.3 185.98-5.58 186.93-6.85 187.38-7.95L187.38-7.95 188.03-7.45Q187.08-5.35 185.43-3.33 183.78-1.3 181.76 0 179.73 1.3 177.58 1.3ZM188.73 2.35L188.73 2.35Q187.18 2.35 186.1 1.33 185.03 0.3 185.03-1.8L185.03-1.8Q185.03-3.6 185.83-5.68 186.63-7.75 188.03-9.78 189.43-11.8 191.2-13.48 192.98-15.15 194.95-16.15 196.93-17.15 198.88-17.15L198.88-17.15Q200.83-17.15 202.13-16.13 203.43-15.1 203.43-13.4L203.43-13.4Q203.43-12.15 202.75-11.7 202.08-11.25 200.98-11.25L200.98-11.25Q201.08-11.65 201.15-12.13 201.23-12.6 201.23-13L201.23-13Q201.23-14.15 200.68-14.98 200.13-15.8 198.78-15.8L198.78-15.8Q197.38-15.8 195.93-14.83 194.48-13.85 193.13-12.23 191.78-10.6 190.73-8.7 189.68-6.8 189.08-4.95 188.48-3.1 188.48-1.65L188.48-1.65Q188.48 0.3 189.83 0.3L189.83 0.3Q190.98 0.3 192.33-0.78 193.68-1.85 195.1-3.53 196.53-5.2 197.83-7 199.13-8.8 200.13-10.3L200.13-10.3Q200.33-10.6 200.38-10.6L200.38-10.6Q200.68-10.55 201.15-10.4 201.63-10.25 201.98-10 202.33-9.75 202.33-9.35L202.33-9.35Q202.33-8.9 201.88-8.13 201.43-7.35 200.88-6.35 200.33-5.35 199.88-4.33 199.43-3.3 199.43-2.4L199.43-2.4Q199.43-1.65 199.83-0.93 200.23-0.2 201.13-0.2L201.13-0.2Q202.48-0.2 204.68-2.18 206.88-4.15 209.13-8.1L209.13-8.1 209.63-7.6Q208.58-4.9 206.93-2.85 205.28-0.8 203.4 0.35 201.53 1.5 199.73 1.5L199.73 1.5Q197.88 1.5 197 0.4 196.13-0.7 196.13-2L196.13-2Q196.13-2.3 196.18-2.68 196.23-3.05 196.28-3.45L196.28-3.45Q194.13-0.55 192.35 0.9 190.58 2.35 188.73 2.35ZM212.38 2.3L212.38 2.3Q210.23 2.3 209.08 1.05 207.93-0.2 207.93-2.65L207.93-2.65Q207.93-4.85 208.75-8.08 209.58-11.3 210.83-14.7L210.83-14.7Q210.33-14.8 209.88-14.88 209.43-14.95 209.03-15.1L209.03-15.1 209.03-16Q209.43-15.95 209.98-15.9 210.53-15.85 211.23-15.8L211.23-15.8Q212.28-18.5 213.48-21.03 214.68-23.55 215.85-25.53 217.03-27.5 218.1-28.68 219.18-29.85 219.93-29.85L219.93-29.85Q220.33-29.85 220.65-29.58 220.98-29.3 220.98-28.75L220.98-28.75Q220.98-27.9 219.93-25.98 218.88-24.05 217.33-21.4 215.78-18.75 214.33-15.65L214.33-15.65Q214.78-15.65 215.25-15.65 215.73-15.65 216.18-15.65L216.18-15.65Q217.83-15.65 219.65-15.7 221.48-15.75 223.33-15.95L223.33-15.95 223.33-15.05Q220.58-14.75 218.4-14.6 216.23-14.45 214.53-14.45L214.53-14.45Q214.33-14.45 214.15-14.45 213.98-14.45 213.78-14.45L213.78-14.45Q212.63-11.8 211.83-9 211.03-6.2 211.03-3.55L211.03-3.55Q211.03-1.4 211.68-0.48 212.33 0.45 213.83 0.45L213.83 0.45Q216.43 0.45 218.93-1.85 221.43-4.15 223.33-8.1L223.33-8.1 223.98-7.6Q222.78-4.8 220.95-2.55 219.13-0.3 216.93 1 214.73 2.3 212.38 2.3ZM225.97 1.3L225.97 1.3Q224.02 1.3 223.07 0.08 222.12-1.15 222.12-2.9L222.12-2.9Q222.12-4.05 222.55-5.8 222.97-7.55 223.67-9.47 224.37-11.4 225.3-13.1 226.22-14.8 227.27-15.88 228.32-16.95 229.32-16.95L229.32-16.95Q229.77-16.95 230.1-16.68 230.42-16.4 230.42-15.85L230.42-15.85Q230.42-15.25 229.65-13.9 228.87-12.55 227.82-10.8 226.77-9.05 226-7.13 225.22-5.2 225.22-3.45L225.22-3.45Q225.22-1.65 225.82-1.05 226.42-0.45 227.67-0.45L227.67-0.45Q229.37-0.45 231.3-2.15 233.22-3.85 235.37-8.1L235.37-8.1 235.82-7.6Q234.37-3.3 231.65-1 228.92 1.3 225.97 1.3ZM231.97-21.6L231.97-21.6Q231.17-21.6 230.55-22 229.92-22.4 229.92-23.25L229.92-23.25Q229.92-24.3 231.15-25.08 232.37-25.85 233.57-25.85L233.57-25.85Q234.32-25.85 234.77-25.5 235.22-25.15 235.22-24.3L235.22-24.3Q235.22-23.35 234.2-22.48 233.17-21.6 231.97-21.6ZM237.87 1.6L237.87 1.6Q235.72 1.6 234.82 0.28 233.92-1.05 233.92-2.95L233.92-2.95Q233.92-4.5 234.42-6.15 234.92-7.8 235.75-9.25 236.57-10.7 237.6-11.6 238.62-12.5 239.67-12.5L239.67-12.5Q239.92-12.5 240.2-12.43 240.47-12.35 240.72-12.25L240.72-12.25Q240.27-11.85 239.65-10.78 239.02-9.7 238.47-8.33 237.92-6.95 237.55-5.6 237.17-4.25 237.17-3.3L237.17-3.3Q237.17-1.8 237.67-1.13 238.17-0.45 238.97-0.45L238.97-0.45Q240.02-0.45 241.47-1.58 242.92-2.7 244.32-4.45L244.32-4.45Q242.92-5.6 242.15-7.48 241.37-9.35 241.37-11.3L241.37-11.3Q241.37-12.95 241.95-14.4 242.52-15.85 243.62-16.73 244.72-17.6 246.27-17.6L246.27-17.6Q248.32-17.6 249.02-16.5 249.72-15.4 249.72-13.75L249.72-13.75Q249.72-11.8 248.77-9.43 247.82-7.05 246.37-4.85L246.37-4.85Q247.27-4.35 248.27-4.35L248.27-4.35Q249.07-4.35 250.07-4.67 251.07-5 252.05-5.8 253.02-6.6 253.62-7.95L253.62-7.95 254.22-7.45Q253.22-5.1 251.4-4.13 249.57-3.15 247.92-3.15L247.92-3.15Q247.27-3.15 246.67-3.28 246.07-3.4 245.52-3.65L245.52-3.65Q243.82-1.4 241.8 0.1 239.77 1.6 237.87 1.6ZM245.22-5.75L245.22-5.75Q246.47-7.6 247.3-9.63 248.12-11.65 248.12-13.45L248.12-13.45Q248.12-14.9 247.7-15.58 247.27-16.25 246.62-16.25L246.62-16.25Q245.62-16.25 244.57-14.8 243.52-13.35 243.52-11.15L243.52-11.15Q243.52-9.7 243.95-8.22 244.37-6.75 245.22-5.75ZM268.82 1L268.82 1Q267.07 1 266.19 0.1 265.32-0.8 265.32-2.2L265.32-2.2Q265.32-3.25 265.69-4.4 266.07-5.55 266.42-6.78 266.77-8 266.77-9.15L266.77-9.15Q266.77-10.55 266.19-11.08 265.62-11.6 264.77-11.6L264.77-11.6Q263.22-11.6 261.62-10.33 260.02-9.05 258.52-7.08 257.02-5.1 255.72-3 254.42-0.9 253.42 0.75L253.42 0.75Q252.62 0.75 251.89 0.48 251.17 0.2 250.77-0.35L250.77-0.35Q250.77-0.6 251.29-1.9 251.82-3.2 252.52-5.1 253.22-7 253.77-9 254.32-11 254.32-12.65L254.32-12.65Q254.62-13 255.27-13.35 255.92-13.7 256.62-13.7L256.62-13.7Q257.97-13.7 257.97-12.4L257.97-12.4Q257.97-11.6 257.52-9.73 257.07-7.85 256.37-5.8L256.37-5.8Q257.72-7.85 259.39-9.88 261.07-11.9 262.97-13.25 264.87-14.6 266.77-14.6L266.77-14.6Q268.72-14.6 269.59-13.2 270.47-11.8 270.47-10.1L270.47-10.1Q270.47-8.55 269.97-7.23 269.47-5.9 268.94-4.67 268.42-3.45 268.42-2.2L268.42-2.2Q268.42-1.15 268.84-0.73 269.27-0.3 269.92-0.3L269.92-0.3Q271.17-0.3 272.42-1.48 273.67-2.65 274.84-4.45 276.02-6.25 276.92-8.1L276.92-8.1 277.47-7.45Q276.42-5 275.12-3.1 273.82-1.2 272.27-0.1 270.72 1 268.82 1Z" opacity="1" transform="matrix(1,0,0,1,0,0)" fill="#e6b17e" class="undefined-text-0" data-fill-palette-color="primary" id="text-0"></path></svg></g></svg></g></svg></g></svg></g><g transform="matrix(1,0,0,1,75.54432000000001,0)"><svg viewBox="0 0 244.43135999999996 22.505660569720316" height="22.505660569720316" width="244.43135999999996"><g><svg xmlns="http://www.w3.org/2000/svg" xmlns:xlink="http://www.w3.org/1999/xlink" version="1.1" x="8" y="0" viewBox="0.23475839600025877 3.2606752138508255 6.5296519270644575 0.6433185439553171" enable-background="new 0 0 7 7" xml:space="preserve" height="22.505660569720316" width="228.43135999999996" class="icon-icon-0" data-fill-palette-color="accent" id="icon-0"><g fill="#99592a" data-fill-palette-color="accent"><polygon fill="none" points="3.512,3.768 3.512,3.768 3.512,3.768  "></polygon><path d="M2.783 3.311C2.521 3.245 2.255 3.265 2 3.348 1.522 3.505 0.994 3.896 0.481 3.645 0.426 3.617 0.375 3.582 0.325 3.544c-0.038-0.029-0.13-0.006-0.071 0.04 0.22 0.167 0.483 0.241 0.757 0.205 0.262-0.035 0.506-0.151 0.747-0.254 0.245-0.105 0.496-0.203 0.768-0.192 0.186 0.007 0.412 0.056 0.546 0.189C3.018 3.491 2.954 3.46 2.886 3.443 2.704 3.397 2.495 3.465 2.416 3.643 2.324 3.844 2.597 3.947 2.75 3.887c0.093-0.035 0.12-0.145 0.056-0.218C2.747 3.601 2.63 3.608 2.574 3.67 2.542 3.705 2.647 3.746 2.675 3.715c0.066-0.072 0.063 0.049 0.028 0.089C2.655 3.862 2.558 3.851 2.52 3.789 2.469 3.705 2.567 3.59 2.631 3.547 2.853 3.399 3.117 3.59 3.145 3.826c0.004 0.032 0.076 0.05 0.102 0.033C3.272 3.862 3.299 3.854 3.299 3.83 3.295 3.537 3.039 3.377 2.783 3.311z" fill="#99592a" data-fill-palette-color="accent"></path><path d="M4.218 3.311C4.479 3.245 4.744 3.265 5 3.348c0.479 0.157 1.006 0.547 1.518 0.297 0.057-0.028 0.107-0.063 0.156-0.101 0.039-0.029 0.129-0.006 0.072 0.04-0.223 0.167-0.484 0.241-0.76 0.205C5.727 3.753 5.48 3.637 5.24 3.534 4.994 3.429 4.744 3.332 4.473 3.342 4.287 3.349 4.062 3.397 3.928 3.531 3.982 3.491 4.046 3.46 4.115 3.443c0.18-0.046 0.389 0.021 0.471 0.199 0.09 0.202-0.184 0.305-0.336 0.244C4.157 3.852 4.13 3.742 4.194 3.669 4.252 3.601 4.369 3.608 4.426 3.67c0.031 0.034-0.072 0.075-0.1 0.045C4.26 3.644 4.262 3.765 4.295 3.805c0.049 0.057 0.148 0.046 0.184-0.016C4.531 3.705 4.432 3.59 4.369 3.547 4.146 3.399 3.883 3.59 3.854 3.826 3.852 3.858 3.78 3.876 3.754 3.859 3.727 3.862 3.701 3.854 3.701 3.83 3.704 3.537 3.961 3.377 4.218 3.311z" fill="#99592a" data-fill-palette-color="accent"></path><path d="M3.493 3.639c0.001 0 0.001 0.001 0.001 0.001l0 0 0 0c0 0.001 0 0.002 0 0.002l0.002-0.001C3.498 3.643 3.5 3.644 3.502 3.646L3.505 3.64h0.003c0.08-0.051 0.126-0.09 0.173-0.146C3.722 3.438 3.766 3.38 3.729 3.338 3.675 3.297 3.619 3.352 3.576 3.43c0-0.003 0-0.006 0-0.009C3.582 3.35 3.59 3.278 3.537 3.261 3.468 3.255 3.449 3.333 3.453 3.423 3.451 3.417 3.447 3.41 3.445 3.404c-0.037-0.06-0.074-0.123-0.127-0.105-0.018 0.009-0.027 0.023-0.03 0.039C3.245 3.417 3.405 3.573 3.493 3.639z" fill="#99592a" data-fill-palette-color="accent"></path><path d="M3.586 3.738C3.562 3.702 3.52 3.682 3.479 3.688c-0.012 0-0.023 0.003-0.033 0.011C3.413 3.724 3.399 3.767 3.418 3.803c0.028 0.051 0.099 0.063 0.146 0.035C3.6 3.816 3.608 3.771 3.586 3.738zM3.525 3.768L3.525 3.768 3.525 3.768 3.525 3.768z" fill="#99592a" data-fill-palette-color="accent"></path></g></svg></g></svg></g><g><rect width="75.54432000000001" height="5.133654402309342" y="16.372006167410973" x="319.97567999999995" fill="#99592a" data-fill-palette-color="accent"></rect><rect width="75.54432000000001" height="5.133654402309342" y="16.372006167410973" x="0" fill="#99592a" data-fill-palette-color="accent"></rect><rect width="75.54432000000001" height="5.133654402309342" y="6.10469736279229" x="319.97567999999995" fill="#99592a" data-fill-palette-color="accent"></rect><rect width="75.54432000000001" height="5.133654402309342" y="6.10469736279229" x="0" fill="#99592a" data-fill-palette-color="accent"></rect></g></svg></g><defs></defs></svg><rect width="395.52" height="92.87064595809913" fill="none" stroke="none" visibility="hidden"></rect></g></svg></g></svg>